<svg id="Layer_2" data-name="Layer 2" xmlns="http://www.w3.org/2000/svg" width="128" height="64" viewBox="0 0 128 64"><defs><style>.cls-1{fill:#8090a8;}.cls-2{fill:#aab5c5;}.cls-3{fill:#333;}.cls-4{fill:#fff;}.cls-5{fill:#2b8fde;}.cls-6{fill:#0050c5;}.cls-7{fill:#5e91da;}</style></defs><title>ih_tools</title><path class="cls-1" d="M41.76,53.57a.79.79,0,0,0-.17.9L42.36,56a.85.85,0,0,0,1.07.24l1.88-.8a1.18,1.18,0,0,1,1.47.2c.33.13.6.44.94.57a1.43,1.43,0,0,1,.43,1.34l-.31,2.21a1,1,0,0,0,.47.77l1.74.51c.17.07.64-.13.84-.63l.81-2a1,1,0,0,1,1.07-.74l.07-.17a1.38,1.38,0,0,0,1,0,1.12,1.12,0,0,1,1.51.61l1.1,1.61a1,1,0,0,0,1.07.24L59,59a.63.63,0,0,0,.17-.9l-.8-1.88a1.22,1.22,0,0,1,.2-1.47c.13-.33.44-.6.57-.94a2,2,0,0,1,1.41-.6l2,.41a.92.92,0,0,0,1-.57l.27-1.64a.78.78,0,0,0-.4-.94l-2.08-.64a1.3,1.3,0,0,1-.9-1.14,4,4,0,0,0-.17-1l.07-.17a1.34,1.34,0,0,1,.54-1.34l1.84-1.2a.79.79,0,0,0,.17-.9L62,42.47a.63.63,0,0,0-.9-.17L59,43c-.7.3-1,.17-1.31-.14-.33-.13-.6-.44-.94-.57a1.34,1.34,0,0,1-.6-1.41l.47-2.14a1,1,0,0,0-.63-.84l-1.74-.51c-.23.1-.64.13-.84.64l-.81,2c-.27.67-.57.94-1.07.73-.23.1-.64.13-1.11.33-.4,0-.8.07-1.27-.71l-1.27-1.68a.79.79,0,0,0-.9-.17l-1.54.93a.81.81,0,0,0-.34.84l1,1.94c.3.7.17,1-.14,1.3a11.4,11.4,0,0,1-.81,1,1.14,1.14,0,0,1-1.24.67l-2.14-.47a1,1,0,0,0-.84.63L40.49,47a.78.78,0,0,0,.4.94l2.08.64a1.3,1.3,0,0,1,.9,1.14L44,51c.2.47.07.8-.54,1.34l-1.68,1.27M54.42,53a4.48,4.48,0,0,1-6-1.62,4.16,4.16,0,0,1,1.62-6A4.28,4.28,0,0,1,55.87,47a4.34,4.34,0,0,1-1.45,6"/><path class="cls-2" d="M45.69,34.65a1,1,0,0,0,1.18-.5l.95-2.35a1.14,1.14,0,0,0-.5-1.18l-3-1.79c.1-.74.27-1.64.37-2.38l3.61-.7a.87.87,0,0,0,.74-.87l0-2.35a.81.81,0,0,0-.81-.91l-3.7-.51a7.44,7.44,0,0,0-.44-2.32l3.1-1.87a.87.87,0,0,0,.47-1.17l-1.07-2.18c0-.4-.54-.6-.94-.57l-3.67.87a7.52,7.52,0,0,0-1.38-1.92l2.19-3a1.28,1.28,0,0,0-.1-1.21L40.81,6a.87.87,0,0,0-1.14-.07L36.83,8.11c-.61-.44-1.45-.78-2.05-1.21l.85-3.56a.83.83,0,0,0-.57-1l-2.19-.88a.83.83,0,0,0-1.11.33L29.9,4.94a10.5,10.5,0,0,0-2.56-.44L26.87.81a1.12,1.12,0,0,0-1-.81L23.47,0a1.11,1.11,0,0,0-1,1l-.44,3.52c-.81.07-1.52.37-2.33.43L17.84,1.86a1.12,1.12,0,0,0-1.25-.31l-2.12.9a1.11,1.11,0,0,0-.64,1.11l1.11,3.56A15.12,15.12,0,0,0,12.78,8.6l-3-2.19a.81.81,0,0,0-1.21.1L6.89,8.19A1.19,1.19,0,0,0,6.75,9.5l2.34,2.87L7.92,14.23l-3.7-.88a1.2,1.2,0,0,0-1,.57l-.95,2.35c-.14.34,0,1,.34,1.11l3.16,1.85c-.1.74-.27,1.64-.37,2.38l-3.61.7a.87.87,0,0,0-.74.87L1,25.7a1.1,1.1,0,0,0,.81.91L5.34,27c.3.7.37,1.51.67,2.22L2.75,31.07a1.11,1.11,0,0,0-.3,1.24l.84,2.28a1.55,1.55,0,0,0,1.18.47L8,34.14c.47.77,1,1.38,1.48,2.15L7.32,39.14a.88.88,0,0,0,.1,1.21L9.1,42a1,1,0,0,0,1.31.14L13.24,40a9.22,9.22,0,0,0,2.05,1.21l-.85,3.56A.85.85,0,0,0,15,45.9l2.19.88a.86.86,0,0,0,1.18-.5l1.86-3.15a6.42,6.42,0,0,0,2.56.44l.47,3.69a.87.87,0,0,0,.87.74l2.53,0a1.29,1.29,0,0,0,.91-.8L28,43.54a6.56,6.56,0,0,0,2.16-.5l2.05,3.16a1.14,1.14,0,0,0,1,.4l2.36-1a.87.87,0,0,0,.47-1.17l-.94-3.49a14,14,0,0,0,2.09-1.3l2.93,2a.94.94,0,0,0,1.38,0l1.65-1.67a.8.8,0,0,0-.1-1.21l-2.1-3,1.24-1.85,3.47.79"/><circle class="cls-1" cx="25.04" cy="24" r="15"/><path class="cls-3" d="M27.17,16.09a4.19,4.19,0,0,0-.9,4.5l-9.32,9.3a1.45,1.45,0,0,0,0,2.1h.3a1.45,1.45,0,0,0,2.1,0l9.31-9a5,5,0,0,0,4.51-1.2,3.61,3.61,0,0,0,.9-4.2l-3,3-1.8-.6-.6-1.8,3-3a4.19,4.19,0,0,0-4.51.9M17.55,30.46a1.35,1.35,0,0,1,1.5,0,.91.91,0,0,1,0,1.2c-.3.6-.9.6-1.5,0a.92.92,0,0,1,0-1.2"/><path class="cls-4" d="M33.63,31.21l-.9.9c-.6.6-1.5.6-1.8,0l-6.31-6c-.6-.6-.6-1.5,0-1.8l-4.21-4.2-1.5-.3-2.1-3.3,1.2-.9,3,2.1.6,1.5,3.91,3.9a1.89,1.89,0,0,1,1.8,0l6.31,6.3c.6.6.6,1.5,0,1.8"/><path class="cls-5" d="M105.76,53.57a.79.79,0,0,0-.17.9l.77,1.47a.85.85,0,0,0,1.07.24l1.88-.8a1.18,1.18,0,0,1,1.47.2c.33.13.6.44.94.57a1.43,1.43,0,0,1,.43,1.34l-.31,2.21a1,1,0,0,0,.47.77l1.74.51c.17.07.64-.13.84-.63l.81-2a1,1,0,0,1,1.07-.74l.07-.17a1.38,1.38,0,0,0,1,0,1.12,1.12,0,0,1,1.51.61l1.1,1.61a1,1,0,0,0,1.07.24L123,59a.63.63,0,0,0,.17-.9l-.8-1.88a1.22,1.22,0,0,1,.2-1.47c.13-.33.44-.6.57-.94a2,2,0,0,1,1.41-.6l2,.41a.92.92,0,0,0,1-.57l.27-1.64a.78.78,0,0,0-.4-.94l-2.08-.64a1.3,1.3,0,0,1-.9-1.14,4,4,0,0,0-.17-1l.07-.17a1.34,1.34,0,0,1,.54-1.34l1.84-1.2a.79.79,0,0,0,.17-.9L126,42.47a.63.63,0,0,0-.9-.17L123,43c-.7.3-1,.17-1.31-.14-.33-.13-.6-.44-.94-.57a1.34,1.34,0,0,1-.6-1.41l.47-2.14a1,1,0,0,0-.63-.84l-1.74-.51c-.23.1-.64.13-.84.64l-.81,2c-.27.67-.57.94-1.07.73-.23.1-.64.13-1.11.33-.4,0-.8.07-1.27-.71l-1.27-1.68a.79.79,0,0,0-.9-.17l-1.54.93a.81.81,0,0,0-.34.84l1,1.94c.3.7.17,1-.14,1.3a11.4,11.4,0,0,1-.81,1,1.14,1.14,0,0,1-1.24.67l-2.14-.47a1,1,0,0,0-.84.63L104.49,47a.78.78,0,0,0,.4.94l2.08.64a1.3,1.3,0,0,1,.9,1.14L108,51c.2.47.07.8-.54,1.34l-1.68,1.27M118.42,53a4.48,4.48,0,0,1-6-1.62,4.16,4.16,0,0,1,1.62-6A4.28,4.28,0,0,1,119.87,47a4.34,4.34,0,0,1-1.45,6"/><path class="cls-6" d="M109.69,34.65a1,1,0,0,0,1.18-.5l.95-2.35a1.14,1.14,0,0,0-.5-1.18l-3-1.79c.1-.74.27-1.64.37-2.38l3.61-.7a.87.87,0,0,0,.74-.87l0-2.35a.81.81,0,0,0-.81-.91l-3.7-.51a7.44,7.44,0,0,0-.44-2.32l3.1-1.87a.87.87,0,0,0,.47-1.17l-1.07-2.18c0-.4-.54-.6-.94-.57l-3.67.87a7.52,7.52,0,0,0-1.38-1.92l2.19-3a1.28,1.28,0,0,0-.1-1.21L104.81,6a.87.87,0,0,0-1.14-.07l-2.83,2.18c-.61-.44-1.45-.78-2.05-1.21l.85-3.56a.83.83,0,0,0-.57-1l-2.19-.88a.83.83,0,0,0-1.11.33L93.9,4.94a10.5,10.5,0,0,0-2.56-.44L90.87.81a1.12,1.12,0,0,0-1-.81L87.47,0a1.11,1.11,0,0,0-1,1l-.44,3.52c-.81.07-1.52.37-2.33.43L81.84,1.86a1.12,1.12,0,0,0-1.25-.31l-2.12.9a1.11,1.11,0,0,0-.64,1.11l1.11,3.56A15.12,15.12,0,0,0,76.78,8.6l-3-2.19a.81.81,0,0,0-1.21.1L70.89,8.19a1.19,1.19,0,0,0-.14,1.31l2.34,2.87-1.17,1.86-3.7-.88a1.2,1.2,0,0,0-1,.57l-.95,2.35c-.14.34,0,1,.34,1.11l3.16,1.85c-.1.74-.27,1.64-.37,2.38l-3.61.7a.87.87,0,0,0-.74.87l0,2.52a1.1,1.1,0,0,0,.81.91l3.54.44c.3.7.37,1.51.67,2.22l-3.27,1.81a1.11,1.11,0,0,0-.3,1.24l.84,2.28a1.55,1.55,0,0,0,1.18.47l3.5-.93c.47.77,1,1.38,1.48,2.15l-2.13,2.85a.88.88,0,0,0,.1,1.21L73.1,42a1,1,0,0,0,1.31.14L77.24,40a9.22,9.22,0,0,0,2.05,1.21l-.85,3.56A.85.85,0,0,0,79,45.9l2.19.88a.86.86,0,0,0,1.18-.5l1.86-3.15a6.42,6.42,0,0,0,2.56.44l.47,3.69a.87.87,0,0,0,.87.74l2.53,0a1.29,1.29,0,0,0,.91-.8L92,43.54a6.56,6.56,0,0,0,2.16-.5l2.05,3.16a1.14,1.14,0,0,0,1,.4l2.36-1a.87.87,0,0,0,.47-1.17l-.94-3.49a14,14,0,0,0,2.09-1.3l2.93,2a.94.94,0,0,0,1.38,0l1.65-1.67a.8.8,0,0,0-.1-1.21l-2.1-3,1.24-1.85,3.47.79"/><circle class="cls-7" cx="89.04" cy="24" r="15"/><path class="cls-3" d="M91.17,16.09a4.19,4.19,0,0,0-.9,4.5l-9.32,9.3a1.45,1.45,0,0,0,0,2.1h.3a1.45,1.45,0,0,0,2.1,0l9.31-9a5,5,0,0,0,4.51-1.2,3.61,3.61,0,0,0,.9-4.2l-3,3-1.8-.6-.6-1.8,3-3a4.19,4.19,0,0,0-4.51.9M81.55,30.46a1.35,1.35,0,0,1,1.5,0,.91.91,0,0,1,0,1.2c-.3.6-.9.6-1.5,0a.92.92,0,0,1,0-1.2"/><path class="cls-4" d="M97.63,31.21l-.9.9c-.6.6-1.5.6-1.8,0l-6.31-6c-.6-.6-.6-1.5,0-1.8l-4.21-4.2-1.5-.3-2.1-3.3,1.2-.9,3,2.1.6,1.5,3.91,3.9a1.89,1.89,0,0,1,1.8,0l6.31,6.3c.6.6.6,1.5,0,1.8"/></svg>