<svg id="Layer_2" data-name="Layer 2" xmlns="http://www.w3.org/2000/svg" width="128" height="64" viewBox="0 0 128 64"><defs><style>.cls-1{fill:#8090a8;}.cls-2{fill:#fff;}.cls-3{fill:#556a8a;}.cls-4{fill:#0050c5;}.cls-5{fill:#5e91da;}.cls-6{fill:#bad80a;}</style></defs><title>ih_xplat-sample</title><path class="cls-1" d="M0,0H60V40H32v4h6v4H22V44h6V40H0ZM56,36V4H4V36Z"/><rect class="cls-1" x="42" y="27" width="22" height="34" rx="3" ry="3"/><rect class="cls-2" x="46" y="31" width="14" height="26"/><path class="cls-3" d="M26.67,30.32A5,5,0,0,1,23,29.15a5,5,0,0,1-1.2-3.7v-3a2.67,2.67,0,0,0-.54-1.82,2.29,2.29,0,0,0-1.79-.61h-.74V17.84h.74a3.76,3.76,0,0,0,1.08-.13,1.7,1.7,0,0,0,.73-.42,1.61,1.61,0,0,0,.4-.72,3.92,3.92,0,0,0,.12-1V13.46a7.37,7.37,0,0,1,.28-2.12,3.51,3.51,0,0,1,2.36-2.44,6.79,6.79,0,0,1,2.19-.31h1v2.2h-.74a3.54,3.54,0,0,0-1,.13,1.87,1.87,0,0,0-1.28,1.24,3.75,3.75,0,0,0-.18,1.24v2.05a6.63,6.63,0,0,1-.15,1.5,2.84,2.84,0,0,1-.45,1,2.07,2.07,0,0,1-.77.64A3.77,3.77,0,0,1,22,19a2.52,2.52,0,0,1,1.86,1,4.39,4.39,0,0,1,.61,2.57v3a3.89,3.89,0,0,0,.18,1.27,2,2,0,0,0,.5.81,1.89,1.89,0,0,0,.78.43,3.69,3.69,0,0,0,1,.13h.74v2.2Z"/><path class="cls-3" d="M33.72,8.58a5,5,0,0,1,3.63,1.17,5,5,0,0,1,1.2,3.71v2a2.67,2.67,0,0,0,.53,1.81,2.28,2.28,0,0,0,1.79.6h.75v2.21h-.75a3.76,3.76,0,0,0-1.08.13,1.66,1.66,0,0,0-.72.42,1.64,1.64,0,0,0-.4.72,3.92,3.92,0,0,0-.12,1v3.08a7.31,7.31,0,0,1-.28,2.12A3.51,3.51,0,0,1,35.91,30a6.84,6.84,0,0,1-2.19.31h-1v-2.2h.75a3.69,3.69,0,0,0,1-.13,1.86,1.86,0,0,0,.78-.44,2,2,0,0,0,.5-.81A3.75,3.75,0,0,0,36,25.5v-3a6.71,6.71,0,0,1,.15-1.51,2.9,2.9,0,0,1,.45-1,2,2,0,0,1,.77-.64,3.89,3.89,0,0,1,1.1-.32,2.54,2.54,0,0,1-1.86-1,4.42,4.42,0,0,1-.6-2.57v-2a3.94,3.94,0,0,0-.18-1.27,2,2,0,0,0-.5-.81,1.89,1.89,0,0,0-.78-.43,3.69,3.69,0,0,0-1-.13h-.75V8.58Z"/><polygon class="cls-4" points="64 0 124 0 124 40 96 40 96 44 102 44 102 48 86 48 86 44 92 44 92 40 64 40 64 0"/><rect class="cls-5" x="68" y="4" width="52" height="32"/><rect class="cls-3" x="106" y="27" width="22" height="34" rx="3" ry="3"/><rect class="cls-6" x="110" y="31" width="14" height="26"/><path class="cls-2" d="M90.67,30.32A5,5,0,0,1,87,29.15a5,5,0,0,1-1.2-3.7v-3a2.67,2.67,0,0,0-.54-1.82,2.29,2.29,0,0,0-1.79-.61h-.74V17.84h.74a3.76,3.76,0,0,0,1.08-.13,1.7,1.7,0,0,0,.73-.42,1.61,1.61,0,0,0,.4-.72,3.92,3.92,0,0,0,.12-1V13.46a7.37,7.37,0,0,1,.28-2.12,3.51,3.51,0,0,1,2.36-2.44,6.79,6.79,0,0,1,2.19-.31h1v2.2h-.74a3.54,3.54,0,0,0-1,.13,1.87,1.87,0,0,0-1.28,1.24,3.75,3.75,0,0,0-.18,1.24v2.05a6.63,6.63,0,0,1-.15,1.5,2.84,2.84,0,0,1-.45,1,2.07,2.07,0,0,1-.77.64A3.77,3.77,0,0,1,86,19a2.52,2.52,0,0,1,1.86,1,4.39,4.39,0,0,1,.61,2.57v3a3.89,3.89,0,0,0,.18,1.27,2,2,0,0,0,.5.81,1.89,1.89,0,0,0,.78.43,3.69,3.69,0,0,0,1,.13h.74v2.2Z"/><path class="cls-2" d="M97.72,8.58a5,5,0,0,1,3.63,1.17,5,5,0,0,1,1.2,3.71v2a2.67,2.67,0,0,0,.53,1.81,2.28,2.28,0,0,0,1.79.6h.75v2.21h-.75a3.76,3.76,0,0,0-1.08.13,1.66,1.66,0,0,0-.72.42,1.64,1.64,0,0,0-.4.72,3.92,3.92,0,0,0-.12,1v3.08a7.31,7.31,0,0,1-.28,2.12A3.51,3.51,0,0,1,99.91,30a6.84,6.84,0,0,1-2.19.31h-1v-2.2h.75a3.69,3.69,0,0,0,1-.13,1.86,1.86,0,0,0,.78-.44,2,2,0,0,0,.5-.81A3.75,3.75,0,0,0,100,25.5v-3a6.71,6.71,0,0,1,.15-1.51,2.9,2.9,0,0,1,.45-1,2,2,0,0,1,.77-.64,3.89,3.89,0,0,1,1.1-.32,2.54,2.54,0,0,1-1.86-1,4.42,4.42,0,0,1-.6-2.57v-2a3.94,3.94,0,0,0-.18-1.27,2,2,0,0,0-.5-.81,1.89,1.89,0,0,0-.78-.43,3.69,3.69,0,0,0-1-.13h-.75V8.58Z"/></svg>