<svg xmlns="http://www.w3.org/2000/svg" viewBox="0 0 64 64"><defs><style>.cls-1{fill:#558ad8;}.cls-2{fill:#0050c5;}.cls-3{fill:#2b8fde;}.cls-4{fill:none;}</style></defs><title>i_drivers</title><g id="ICONS-64x"><path class="cls-1" d="M24,60.82a1.25,1.25,0,0,0,1.36.5l2.5-.8a1.34,1.34,0,0,0,.66-1.6L27.8,55.8a1.86,1.86,0,0,1,.71-2.2c.3-.48.84-.82,1.14-1.3a2.25,2.25,0,0,1,2.2-.32l3.35,1.07a1.52,1.52,0,0,0,1.32-.52L37.77,50c.15-.24,0-1-.76-1.47l-2.9-1.79a1.64,1.64,0,0,1-.86-1.86,9,9,0,0,0,0-1.75c-.19-.78,0-1.66,1.34-2.18l2.8-1.28a1.59,1.59,0,0,0,.65-1.6l-1-2.65a1,1,0,0,0-1.31-.52l0,0-3.12.79A1.92,1.92,0,0,1,30.37,35c-.48-.3-.82-.84-1.3-1.14a3.22,3.22,0,0,1-.56-2.35l1.16-3a1.45,1.45,0,0,0-.61-1.72l-2.48-.86a1.22,1.22,0,0,0-1.57.37l-1.55,3a2,2,0,0,1-2,1.1,6.22,6.22,0,0,0-1.66,0l-.24-.15a2.12,2.12,0,0,1-2-1.17l-1.4-3.18a1.25,1.25,0,0,0-1.36-.5l-2.65,1a1,1,0,0,0-.52,1.31l0,0,.59,3.37c.28,1.17,0,1.66-.56,2-.3.48-.84.82-1.14,1.3A2.11,2.11,0,0,1,8.23,35L5,33.68a1.56,1.56,0,0,0-1.43.8L2.3,37.05a1.78,1.78,0,0,0,.76,1.47L6,40.31c1,.6,1.3,1.14.85,1.87A13.71,13.71,0,0,0,7,44c0,.61-.11,1.26-1.43,1.78l-3,1.52a1.25,1.25,0,0,0-.51,1.36l1,2.65a1.28,1.28,0,0,0,1.21.75l3.28-1c1.17-.28,1.66,0,2,.56A18,18,0,0,1,11,53.14a1.8,1.8,0,0,1,.7,2.11l-1.31,3.2a1.56,1.56,0,0,0,.76,1.47L13.5,61a1.22,1.22,0,0,0,1.57-.37l1.59-3.05a2,2,0,0,1,2-1.1l1.9.17c.78-.18,1.27.11,1.93,1.19L24,60.8M26.6,41a7.07,7.07,0,0,1-4.11,8.83,6.57,6.57,0,0,1-8.89-4.12,6.75,6.75,0,0,1,4-8.58,6.84,6.84,0,0,1,8.94,3.7l.06.16"/><path class="cls-2" d="M44.16,28.94a1,1,0,0,0,1.06.39l1.94-.62a1,1,0,0,0,.51-1.25L47.1,25a1.45,1.45,0,0,1,.5-1.73c.23-.38.65-.64.89-1a1.75,1.75,0,0,1,1.71-.25l2.61.83a1.18,1.18,0,0,0,1-.41l1-2a1,1,0,0,0-.59-1.15L52,17.93a1.27,1.27,0,0,1-.67-1.45s0-2.58,1-3l2.17-1A1.24,1.24,0,0,0,55,11.26L54.22,9.2a.77.77,0,0,0-1-.41l-.05,0-2.44.58A1.49,1.49,0,0,1,49,8.84c-.38-.23-.64-.65-1-.88a2.5,2.5,0,0,1-.38-1.84l.9-2.3A1.13,1.13,0,0,0,48,2.49l-1.93-.67a1,1,0,0,0-1.22.29L43.68,4.47a1.6,1.6,0,0,1-1.57.85,4.84,4.84,0,0,0-1.29,0s-1.44-.49-1.72-1.06l-1-2.47A1,1,0,0,0,37,1.4l-2.06.81a.77.77,0,0,0-.36,1v0l.46,2.62c.22.91,0,1.29-.44,1.55-.23.38-.65.64-.89,1a1.64,1.64,0,0,1-1.83.43l-2.49-1a1.22,1.22,0,0,0-1.15.59l-1,2a1.38,1.38,0,0,0,.59,1.15L30.11,13c.75.46,1,.89.66,1.45a10.52,10.52,0,0,0,.17,1.41c0,.49-.09,1-1.12,1.39l-2.29,1.19a1,1,0,0,0-.39,1.06l.81,2.06a1,1,0,0,0,.94.58l2.55-.76c.91-.22,1.29,0,1.55.44A14,14,0,0,1,34.07,23a1.4,1.4,0,0,1,.53,1.6l-1,2.49a1.21,1.21,0,0,0,.59,1.14l1.81.86a1,1,0,0,0,1.22-.29l1.21-2.37A1.59,1.59,0,0,1,40,25.6l1.48.13c.61-.14,1,.09,1.5.93l1.18,2.29m2-15.41a5.5,5.5,0,0,1-3.2,6.86,5.11,5.11,0,0,1-6.69-2.73q-.1-.23-.17-.47a5.25,5.25,0,0,1,3.08-6.67,5.32,5.32,0,0,1,7,2.88l0,.12"/><path class="cls-3" d="M52.25,52.76c.32,0,1.46,0,1.46,0A.74.74,0,0,0,54.3,52l.07-1.78a1,1,0,0,1,.72-1.09c.23-.21,1.53-.72,2-.36l1.63,1.07a.85.85,0,0,0,.79-.08l1.06-1.18a.77.77,0,0,0-.19-.9l-1.28-1.39C58.82,46,58.84,45,58.84,45a3.09,3.09,0,0,1,.35-1c.2-.44.28-.63,1-.75L61.9,43a.88.88,0,0,0,.59-.76l-.16-1.57a.55.55,0,0,0-.62-.48h0l-1.79-.07a1.07,1.07,0,0,1-1.09-.72c-.21-.23-.31-.57-.52-.8a1.79,1.79,0,0,1,.06-1.34l1.07-1.41a.81.81,0,0,0-.07-1L58.14,34a.68.68,0,0,0-.89,0L56,35.39a1.14,1.14,0,0,1-1.24.28c-.28-.13-1-.38-1-.38a1.18,1.18,0,0,1-.86-.93l-.27-1.92a.69.69,0,0,0-.65-.47l-1.57.16a.55.55,0,0,0-.48.62v0l-.19,1.89c0,.67-.26.88-.6,1a2.28,2.28,0,0,0-.81.53A1.17,1.17,0,0,1,47,36.14L45.45,35a.87.87,0,0,0-.9.19l-1.06,1.19a1,1,0,0,0,.19.9L45,38.6c.43.47.45.59.31,1.15s-.27.53-.28,1-.25.66-1,.74l-1.8.37a.7.7,0,0,0-.48.65l.16,1.57a.71.71,0,0,0,.53.58h1.9c.67,0,.88.26,1,.6a10,10,0,0,1,.52,1,1,1,0,0,1,.06,1.23L44.74,49a.87.87,0,0,0,.19.9l1.08.94a.68.68,0,0,0,.89,0l1.29-1.4a1.14,1.14,0,0,1,1.24-.28,5.39,5.39,0,0,0,1,.38c.64.18.66.25.86.93l.37,1.8S51.93,52.76,52.25,52.76ZM56,42a3.93,3.93,0,0,1-3.53,4.1A3.65,3.65,0,0,1,48.4,43q0-.17,0-.35a3.75,3.75,0,0,1,3.41-4A3.8,3.8,0,0,1,56,42V42"/><rect class="cls-4" y="0.04" width="64" height="64"/></g></svg>