<svg xmlns="http://www.w3.org/2000/svg" viewBox="0 0 64 64"><defs><style>.cls-1{fill:#2b6dcf;}.cls-2{fill:#0050c5;}.cls-3{fill:#4ea2e3;}.cls-4{fill:none;}</style></defs><title>i_extensions</title><g id="ICONS-64x"><polygon class="cls-1" points="16 48 32 48 32 60 4 60 4 4 28 4 28 16 16 16 16 48"/><rect class="cls-2" x="20" y="20" width="24" height="24"/><polygon class="cls-3" points="32 4 32 16 40 16 40 12 52 12 52 24 48 24 48 32 60 32 60 4 32 4"/><polygon class="cls-1" points="48 48 36 48 36 60 60 60 60 36 48 36 48 48"/><rect class="cls-4" width="64" height="64"/></g></svg>