<svg xmlns="http://www.w3.org/2000/svg" viewBox="0 0 64 64"><defs><style>.cls-1{fill:#55a5e4;}.cls-2{fill:#80bceb;}.cls-3{fill:none;stroke:#0050c5;stroke-miterlimit:10;stroke-width:3px;}.cls-4{fill:#0050c5;}</style></defs><title>i_free-trial</title><g id="ICONS-64x"><polygon class="cls-1" points="51.96 32.5 63 45.55 45.97 46.97 44.55 64 31.5 52.96 18.45 64 17.03 46.97 0 45.55 11.04 32.5 0 19.45 17.03 18.03 18.45 1 30.5 12 44.55 1 45.97 18.03 63 19.45 51.96 32.5"/><polygon class="cls-2" points="51.96 32.5 63 45.55 45.97 46.97 44.55 64 31.5 52.96 30.5 53.8 30.5 12 44.55 1 45.97 18.03 63 19.45 51.96 32.5"/><line class="cls-3" x1="21" y1="45.5" x2="41" y2="45.5"/><path class="cls-4" d="M42.28,30.07,30.5,41.85,18.78,30.14l2.29-2.24L29,35.77V14h3V35.77l8-7.94Z"/></g></svg>