<svg xmlns="http://www.w3.org/2000/svg" viewBox="0 0 64 64"><defs><style>.cls-1{isolation:isolate;}.cls-2{fill:#0078d7;}.cls-3{fill:#2b8fde;}.cls-4{fill:#80bceb;}.cls-5{fill:#0050c5;mix-blend-mode:multiply;}</style></defs><title>i_generic-database</title><g class="cls-1"><g id="ICONS-64x"><path class="cls-2" d="M55,10V55.27c0,4.62-10.21,8.59-23.5,8.74H31c-13.05-.24-23-4.17-23-8.73V10H55Z"/><path class="cls-3" d="M55,10V55.27c0,4.62-10.21,8.59-23.5,8.74H31V10H55Z"/><path class="cls-4" d="M55,9.58c0,4.69-10.52,8.49-23.5,8.49S8,14.26,8,9.58,18.84,1.09,31.81,1.09,55,4.89,55,9.58"/><path class="cls-2" d="M51,9.51C51,10.8,49.88,12,47.93,13c-3.46,1.8-9.53,3-16.43,3s-13-1.2-16.43-3C13.12,12,12,10.8,12,9.51,12,5.92,20.73,3,31.5,3S51,5.92,51,9.51Z"/><path class="cls-5" d="M47.93,13c-3.46,1.8-9.53,3-16.43,3s-13-1.2-16.43-3c3.46-1.8,9.53-3,16.43-3S44.47,11.21,47.93,13Z"/></g></g></svg>