<svg xmlns="http://www.w3.org/2000/svg" viewBox="0 0 64 64"><defs><style>.cls-1{fill:#0050c5;}.cls-2{fill:#2a6dcf;}.cls-3{fill:none;stroke:#f2f2f2;stroke-miterlimit:10;stroke-width:3px;}.cls-4{fill:#f2f2f2;}</style></defs><title>i_api-reference</title><g id="ICONS-64x"><path class="cls-1" d="M64,32A32,32,0,1,1,32,0,32,32,0,0,1,64,32Z"/><path class="cls-2" d="M64,32A32,32,0,0,1,53.08,56.08L7.92,10.92A32,32,0,0,1,64,32Z"/><path class="cls-3" d="M22,33.38q-.26.3-.49.62M22,49.62a12.5,12.5,0,1,0,0-16.23"/><circle class="cls-4" cx="31.5" cy="41.5" r="6.5"/><polygon class="cls-4" points="12 14 12 43 29 43 29 40 15 40 15 17 49 17 49 40 43 40 43 43 52 43 52 40 52 14 12 14"/></g></svg>