<svg xmlns="http://www.w3.org/2000/svg" viewBox="0 0 64 64"><defs><style>.cls-1{fill:#80bceb;}.cls-2{fill:#aad2f2;}.cls-3{fill:#2b8fde;}.cls-4{fill:#d4e8f8;}.cls-5{fill:#2b6dcf;}.cls-6{fill:none;}</style></defs><title>i_article</title><g id="ICONS-64x"><path class="cls-1" d="M55,22V60a4,4,0,0,1-4,4H13a4,4,0,0,1-4-4V4a4,4,0,0,1,4-4H33Z"/><path class="cls-2" d="M50,64H13a4,4,0,0,1-4-4V23Z"/><polygon class="cls-3" points="55 22 55 23 33 23 33 0 55 22"/><polygon class="cls-4" points="54 21 53.09 21 34 21 34 1.05 33 0 32 0 32 23 33 23 55 23 55 22 54 21"/><rect class="cls-5" x="16" y="19" width="16" height="2"/><rect class="cls-5" x="16" y="11" width="16" height="2"/><rect class="cls-5" x="16" y="27" width="32" height="2"/><rect class="cls-5" x="16" y="35" width="32" height="2"/><rect class="cls-5" x="16" y="43" width="32" height="2"/><rect class="cls-5" x="16" y="51" width="32" height="2"/><rect class="cls-6" width="64" height="64"/></g></svg>