<svg xmlns="http://www.w3.org/2000/svg" viewBox="0 0 64 64"><defs><style>.cls-1{fill:#444545;}.cls-2{fill:#80a7e2;}.cls-3{fill:#aac5ec;}.cls-4{fill:#fafbfb;}.cls-5{fill:#fff;}.cls-6{fill:none;}</style></defs><title>i_web-apps</title><g id="ICONS-64x"><rect class="cls-1" x="12" width="42" height="64" rx="4" ry="4"/><rect class="cls-2" x="14" y="7" width="38" height="50"/><polygon class="cls-3" points="52 38 52 7 22 7 52 38"/><path class="cls-4" d="M33,44.5A13.5,13.5,0,1,1,46.5,31,13.51,13.51,0,0,1,33,44.5Z"/><path class="cls-1" d="M33,17A14,14,0,1,0,47,31,14,14,0,0,0,33,17Z"/><path class="cls-5" d="M33,43A12,12,0,1,1,45,31,12,12,0,0,1,33,43Z"/><polygon class="cls-1" points="45.67 27 20 27 21 25 45 25 45.67 27"/><polygon class="cls-1" points="45 36 21 36 20.4 34 45.72 34 45 36"/><path class="cls-1" d="M33,17c-3.87,0-7,6.27-7,14s3.13,14,7,14,7-6.27,7-14S36.87,17,33,17Zm0,26c-2.09,0-5-4.57-5-12s2.91-12,5-12,5,4.57,5,12S35.09,43,33,43Z"/><rect class="cls-6" x="17" y="15" width="32" height="32"/><rect class="cls-5" x="23" y="3" width="20" height="2" rx="1" ry="1"/><circle class="cls-5" cx="33" cy="60" r="2"/></g></svg>